<mxfile host="Electron" modified="2024-07-16T14:28:28.544Z" agent="Mozilla/5.0 (Windows NT 10.0; Win64; x64) AppleWebKit/537.36 (KHTML, like Gecko) draw.io/22.0.3 Chrome/114.0.5735.289 Electron/25.8.4 Safari/537.36" etag="JeInkm0IQbYLcpzSwb6l" version="22.0.3" type="device">
  <diagram name="Page-1" id="5qI5FoQScvds3nN297RY">
    <mxGraphModel dx="1020" dy="543" grid="1" gridSize="10" guides="1" tooltips="1" connect="1" arrows="1" fold="1" page="1" pageScale="1" pageWidth="827" pageHeight="1169" math="0" shadow="0">
      <root>
        <mxCell id="0" />
        <mxCell id="1" parent="0" />
        <mxCell id="YEMPdPOFqKC-Vn0LA0eU-1" value="Service Layer" style="rounded=1;whiteSpace=wrap;html=1;fillColor=#EA6B66;" vertex="1" parent="1">
          <mxGeometry x="220" y="250" width="270" height="110" as="geometry" />
        </mxCell>
        <mxCell id="YEMPdPOFqKC-Vn0LA0eU-2" value="Mapper Layer" style="rounded=1;whiteSpace=wrap;html=1;fillColor=#E6D0DE;" vertex="1" parent="1">
          <mxGeometry x="250" y="390" width="90" height="30" as="geometry" />
        </mxCell>
        <mxCell id="YEMPdPOFqKC-Vn0LA0eU-5" value="" style="shape=flexArrow;endArrow=classic;html=1;rounded=0;entryX=0.5;entryY=0;entryDx=0;entryDy=0;fillColor=#FFF2CC;" edge="1" parent="1" target="YEMPdPOFqKC-Vn0LA0eU-1">
          <mxGeometry width="50" height="50" relative="1" as="geometry">
            <mxPoint x="355" y="180" as="sourcePoint" />
            <mxPoint x="400" y="150" as="targetPoint" />
          </mxGeometry>
        </mxCell>
        <mxCell id="YEMPdPOFqKC-Vn0LA0eU-6" value="External HTTP Requests" style="text;html=1;strokeColor=none;fillColor=none;align=center;verticalAlign=middle;whiteSpace=wrap;rounded=0;" vertex="1" parent="1">
          <mxGeometry x="270" y="150" width="170" height="30" as="geometry" />
        </mxCell>
        <mxCell id="YEMPdPOFqKC-Vn0LA0eU-9" value="Mapper Layer" style="rounded=1;whiteSpace=wrap;html=1;fillColor=#E6D0DE;" vertex="1" parent="1">
          <mxGeometry x="250" y="190" width="90" height="30" as="geometry" />
        </mxCell>
        <mxCell id="YEMPdPOFqKC-Vn0LA0eU-11" value="" style="shape=flexArrow;endArrow=classic;html=1;rounded=0;fillColor=#FFF2CC;" edge="1" parent="1">
          <mxGeometry width="50" height="50" relative="1" as="geometry">
            <mxPoint x="350" y="360" as="sourcePoint" />
            <mxPoint x="350" y="450" as="targetPoint" />
          </mxGeometry>
        </mxCell>
        <mxCell id="YEMPdPOFqKC-Vn0LA0eU-12" value="DataBase Schemas" style="rounded=1;whiteSpace=wrap;html=1;fillColor=#EA6B66;" vertex="1" parent="1">
          <mxGeometry x="140" y="450" width="430" height="60" as="geometry" />
        </mxCell>
      </root>
    </mxGraphModel>
  </diagram>
</mxfile>
